nColumns=19
nRows=25
DataType=double
version=3
OpenSimVersion=4.1
endheader
time	ground_force_calcn_r_vx	ground_force_calcn_r_vy	ground_force_calcn_r_vz	ground_force_calcn_r_px	ground_force_calcn_r_py	ground_force_calcn_r_pz	ground_force_calcn_r_mx	ground_force_calcn_r_my	ground_force_calcn_r_mz	ground_force_calcn_l_vx	ground_force_calcn_l_vy	ground_force_calcn_l_vz	ground_force_calcn_l_px	ground_force_calcn_l_py	ground_force_calcn_l_pz	ground_force_calcn_l_mx	ground_force_calcn_l_my	ground_force_calcn_l_mz
1.09	-102.858	157.806	-18.2572	-0.115821	0	-0.430334	-0.131355	0.201526	-0.0233153	-55.9905	83.2102	20.7121	-0.123963	0	-0.768215	0.203758	-0.302814	-0.0753744
1.1	-323.333	552.982	-62.7293	-0.122864	0	-0.432314	-1.10187	1.88448	-0.213772	-220.164	355.689	68.2573	-0.13414	0	-0.771592	0.510293	-0.82441	-0.158206
1.11	-282.968	742.401	-69.7636	-0.1322	0	-0.437796	-2.37832	6.2398	-0.586355	-239.55	502.422	69.5988	-0.136952	0	-0.760662	1.64542	-3.45104	-0.478061
1.12	-116.148	756.836	-24.0492	-0.142887	0	-0.443597	-1.17266	7.6412	-0.242807	-93.2157	486.696	-7.3075	-0.143032	0	-0.743936	0.49829	-2.60166	0.0390627
1.13	-179.378	864.948	-22.3854	-0.143934	0	-0.448216	-0.655339	3.16	-0.0817827	-98.8707	536.805	-32.2517	-0.142336	0	-0.733794	-0.60705	3.29589	-0.19802
1.14	-283.703	931.162	-25.187	-0.141441	0	-0.450972	0.185776	-0.609747	0.0164931	-208.45	612.394	-10.5362	-0.139393	0	-0.730731	-1.55382	4.56487	-0.078538
1.15	-323.743	934.162	-20.7034	-0.139386	0	-0.45348	0.799826	-2.3079	0.051149	-273.771	646.624	18.447	-0.139611	0	-0.728524	-1.41264	3.33652	0.0951846
1.16	-303.059	950.677	-20.5221	-0.139442	0	-0.455423	0.774988	-2.43109	0.0524795	-247.862	669.598	40.4425	-0.14427	0	-0.726792	-0.525169	1.41874	0.0856896
1.17	-245.309	1010.24	-34.5868	-0.140888	0	-0.456288	0.163061	-0.671521	0.0229904	-163.744	729.26	50.0317	-0.152171	0	-0.725992	0.136811	-0.609307	-0.0418022
1.18	-202.517	1065.79	-58.6843	-0.140385	0	-0.456699	-0.321101	1.68986	-0.0930468	-116.119	827.966	64.5401	-0.158236	0	-0.725878	0.414154	-2.95305	-0.230191
1.19	-195.199	1072.39	-63.1465	-0.136592	0	-0.458458	-0.418016	2.29652	-0.135228	-127.384	896.314	74.1049	-0.15822	0	-0.72513	0.567917	-3.99606	-0.330384
1.2	-201.91	1028.68	-46.4298	-0.130972	0	-0.461245	-0.199951	1.0187	-0.0459794	-148.168	874.693	57.0033	-0.152332	0	-0.723057	0.463839	-2.73822	-0.178448
1.21	-204.482	958.234	-24.1621	-0.125578	0	-0.463805	0.137449	-0.644106	0.0162413	-158.77	796.86	32.3788	-0.144289	0	-0.720792	0.150447	-0.75509	-0.0306815
1.22	-201.696	889.492	-10.5487	-0.121985	0	-0.465094	0.336503	-1.484	0.0175991	-159.821	707.919	16.7197	-0.137571	0	-0.71879	-0.0351089	0.155513	0.00367292
1.23	-195.737	840.723	-10.7563	-0.120895	0	-0.465072	0.241586	-1.03765	0.0132758	-158.558	627.443	12.6353	-0.132355	0	-0.71721	0.0232791	-0.0921199	-0.00185509
1.24	-182.169	818.389	-22.4563	-0.122436	0	-0.463916	-0.111089	0.499063	-0.0136941	-159.79	568.929	13.8643	-0.128048	0	-0.716012	0.191398	-0.681469	-0.0166068
1.25	-161.796	820.912	-40.3655	-0.126223	0	-0.462107	-0.476387	2.41707	-0.118851	-160.357	537.075	16.2043	-0.12517	0	-0.715067	0.348335	-1.16666	-0.0351998
1.26	-137.24	843.678	-54.5567	-0.131412	0	-0.460584	-0.598909	3.68178	-0.238083	-152.031	519.774	16.9834	-0.124153	0	-0.714053	0.420436	-1.43741	-0.0469669
1.27	-107.693	883.679	-57.4942	-0.136935	0	-0.460011	-0.454674	3.73085	-0.242737	-136.778	507.089	15.6923	-0.124708	0	-0.712671	0.371632	-1.37778	-0.0426364
1.28	-76.4101	934.294	-48.9513	-0.141785	0	-0.460462	-0.216034	2.64153	-0.1384	-123.757	501.899	14.7748	-0.126712	0	-0.711251	0.216316	-0.877271	-0.025825
1.29	-49.6517	970.181	-35.1346	-0.145409	0	-0.461349	-0.0523967	1.02382	-0.0370771	-116.268	506.37	15.3632	-0.129923	0	-0.709913	0.0299237	-0.130323	-0.00395398
1.3	-33.4649	976.099	-24.0913	-0.147639	0	-0.462144	0.0109439	-0.319209	0.00787847	-110.344	517.819	15.5516	-0.13364	0	-0.708696	-0.10981	0.515312	0.0154764
1.31	-33.6217	956.71	-21.0945	-0.148021	0	-0.462455	0.027666	-0.78724	0.0173578	-103.634	539.023	15.4577	-0.137847	0	-0.707889	-0.166878	0.867971	0.024891
1.32	-44.1629	919.036	-27.3934	-0.14661	0	-0.461942	0.00397572	-0.0827354	0.00246607	-89.6392	580.717	14.3459	-0.143875	0	-0.707312	-0.201721	1.30683	0.0322836
1.33	-56.2373	876.644	-39.1786	-0.144158	0	-0.46079	-0.0911365	1.42066	-0.0634917	-62.1468	645.872	7.82808	-0.153366	0	-0.705944	-0.210712	2.18987	0.0265416
